<svg xmlns="http://www.w3.org/2000/svg" viewBox="0 0 200 200">
  <rect x="10" y="10" width="184" height="184" rx="2" fill="#000000"/>
  <rect x="6" y="6" width="184" height="184" rx="2" fill="#ffffff" stroke="#000000" stroke-width="5"/>
  <rect x="18" y="20" width="8" height="160" fill="#000000"/>
  <rect x="14" y="16" width="8" height="160" fill="#ef4444" stroke="#000000" stroke-width="2.5"/>
  <rect x="50" y="44" width="26" height="26" fill="#000000"/>
  <rect x="46" y="40" width="26" height="26" fill="#ef4444" stroke="#000000" stroke-width="3"/>
  <polyline points="50,52 57,60 68,43" stroke="#ffffff" stroke-width="4" stroke-linecap="square" fill="none"/>
  <rect x="83" y="52" width="88" height="11" fill="#000000"/>
  <rect x="79" y="48" width="88" height="11" fill="#fecaca" stroke="#000000" stroke-width="2.5"/>
  <polyline points="46,78 38,78 38,116 46,116" stroke="#000000" stroke-width="4" stroke-linecap="square" stroke-linejoin="miter" fill="none"/>
  <rect x="50" y="84" width="26" height="26" fill="#000000"/>
  <rect x="46" y="80" width="26" height="26" fill="#ffffff" stroke="#000000" stroke-width="3"/>
  <rect x="83" y="92" width="88" height="11" fill="#000000"/>
  <rect x="79" y="88" width="88" height="11" fill="#ffffff" stroke="#000000" stroke-width="2.5"/>
  <rect x="66" y="128" width="26" height="26" fill="#000000"/>
  <rect x="62" y="124" width="26" height="26" fill="#ffffff" stroke="#000000" stroke-width="3"/>
  <rect x="99" y="136" width="72" height="11" fill="#000000"/>
  <rect x="95" y="132" width="72" height="11" fill="#ffffff" stroke="#000000" stroke-width="2.5"/>
</svg>
